<?xml version="1.0" encoding="UTF-8" standalone="no"?>
<!DOCTYPE svg PUBLIC "-//W3C//DTD SVG 1.1//EN"
 "http://www.w3.org/Graphics/SVG/1.1/DTD/svg11.dtd">
<!-- Generated by graphviz version 13.0.0 (20250608.1624)
 -->
<!-- Title: G Pages: 1 -->
<svg width="1281pt" height="861pt"
 viewBox="0.00 0.00 1281.00 861.00" xmlns="http://www.w3.org/2000/svg" xmlns:xlink="http://www.w3.org/1999/xlink">
<g id="graph0" class="graph" transform="scale(1 1) rotate(0) translate(4 856.81)">
<title>G</title><style>.edge>path:hover{stroke-width:8}</style>
<polygon fill="white" stroke="none" points="-4,4 -4,-856.81 1277.13,-856.81 1277.13,4 -4,4"/>
<!-- whittle -->
<g id="node1" class="node">
<title>whittle</title><style>.edge>path:hover{stroke-width:8}</style>
<polygon fill="blue" stroke="black" points="328.76,-108 274.76,-108 274.76,-72 328.76,-72 328.76,-108"/>
<text xml:space="preserve" text-anchor="middle" x="301.76" y="-86.5" font-family="Helvetica,sans-Serif" font-size="10.00" fill="white">whittle</text>
</g>
<!-- whittle_cli -->
<g id="node2" class="node">
<title>whittle_cli</title><style>.edge>path:hover{stroke-width:8}</style>
<ellipse fill="#964040" stroke="black" cx="390.76" cy="-18" rx="34.43" ry="18"/>
<text xml:space="preserve" text-anchor="middle" x="390.76" y="-14.5" font-family="Helvetica,sans-Serif" font-size="10.00" fill="#ffffff">whittle.cli</text>
</g>
<!-- whittle_config -->
<g id="node3" class="node">
<title>whittle_config</title><style>.edge>path:hover{stroke-width:8}</style>
<ellipse fill="#c24747" stroke="black" cx="390.76" cy="-90" rx="44.35" ry="18"/>
<text xml:space="preserve" text-anchor="middle" x="390.76" y="-86.5" font-family="Helvetica,sans-Serif" font-size="10.00" fill="#ffffff">whittle.config</text>
</g>
<!-- whittle_config&#45;&gt;whittle_cli -->
<g id="edge1" class="edge">
<title>whittle_config&#45;&gt;whittle_cli</title><style>.edge>path:hover{stroke-width:8}</style>
<path fill="none" stroke="black" d="M390.76,-71.7C390.76,-64.41 390.76,-55.73 390.76,-47.54"/>
<polygon fill="#c24747" stroke="black" points="394.26,-47.62 390.76,-37.62 387.26,-47.62 394.26,-47.62"/>
</g>
<!-- whittle_src -->
<g id="node4" class="node">
<title>whittle_src</title><style>.edge>path:hover{stroke-width:8}</style>
<ellipse fill="#f91010" stroke="black" cx="301.76" cy="-175.11" rx="36.68" ry="18"/>
<text xml:space="preserve" text-anchor="middle" x="301.76" y="-171.61" font-family="Helvetica,sans-Serif" font-size="10.00" fill="#ffffff">whittle.src</text>
</g>
<!-- whittle_src&#45;&gt;whittle -->
<g id="edge2" class="edge">
<title>whittle_src&#45;&gt;whittle</title><style>.edge>path:hover{stroke-width:8}</style>
<path fill="none" stroke="black" d="M301.76,-156.89C301.76,-146.15 301.76,-132.07 301.76,-119.68"/>
<polygon fill="#f91010" stroke="black" points="305.26,-120 301.76,-110 298.26,-120 305.26,-120"/>
</g>
<!-- whittle_src&#45;&gt;whittle_cli -->
<g id="edge3" class="edge">
<title>whittle_src&#45;&gt;whittle_cli</title><style>.edge>path:hover{stroke-width:8}</style>
<path fill="none" stroke="black" d="M281.11,-159.99C259.95,-143.67 232.07,-115.89 246.76,-91"/>
</g>
<!-- whittle_src_ai_assistant -->
<g id="node5" class="node">
<title>whittle_src_ai_assistant</title><style>.edge>path:hover{stroke-width:8}</style>
<ellipse fill="#913030" stroke="black" cx="198.76" cy="-175.11" rx="48.44" ry="31.11"/>
<text xml:space="preserve" text-anchor="middle" x="198.76" y="-183.61" font-family="Helvetica,sans-Serif" font-size="10.00" fill="#ffffff">whittle.</text>
<text xml:space="preserve" text-anchor="middle" x="198.76" y="-171.61" font-family="Helvetica,sans-Serif" font-size="10.00" fill="#ffffff">src.</text>
<text xml:space="preserve" text-anchor="middle" x="198.76" y="-159.61" font-family="Helvetica,sans-Serif" font-size="10.00" fill="#ffffff">ai_assistant</text>
</g>
<!-- whittle_src_ai_assistant&#45;&gt;whittle_cli -->
<g id="edge4" class="edge">
<title>whittle_src_ai_assistant&#45;&gt;whittle_cli</title><style>.edge>path:hover{stroke-width:8}</style>
<path fill="none" stroke="black" d="M246.76,-89C267.69,-53.51 312.67,-35.65 346.82,-26.9"/>
<polygon fill="#913030" stroke="black" points="347.54,-30.33 356.47,-24.62 345.93,-23.52 347.54,-30.33"/>
<path fill="none" stroke="black" d="M215.06,-145.57C224.29,-129.5 236.09,-109.08 246.76,-91"/>
</g>
<!-- whittle_src_interfaces -->
<g id="node6" class="node">
<title>whittle_src_interfaces</title><style>.edge>path:hover{stroke-width:8}</style>
<ellipse fill="#f91010" stroke="black" cx="1073.76" cy="-813.22" rx="41.54" ry="31.11"/>
<text xml:space="preserve" text-anchor="middle" x="1073.76" y="-821.72" font-family="Helvetica,sans-Serif" font-size="10.00" fill="#ffffff">whittle.</text>
<text xml:space="preserve" text-anchor="middle" x="1073.76" y="-809.72" font-family="Helvetica,sans-Serif" font-size="10.00" fill="#ffffff">src.</text>
<text xml:space="preserve" text-anchor="middle" x="1073.76" y="-797.72" font-family="Helvetica,sans-Serif" font-size="10.00" fill="#ffffff">interfaces</text>
</g>
<!-- whittle_src_interfaces&#45;&gt;whittle_src_ai_assistant -->
<g id="edge5" class="edge">
<title>whittle_src_interfaces&#45;&gt;whittle_src_ai_assistant</title><style>.edge>path:hover{stroke-width:8}</style>
<path fill="none" stroke="black" d="M1242.76,-464.42C952.56,-116.02 678.34,-370.59 255.76,-206.23 252.1,-204.8 248.37,-203.21 244.67,-201.51"/>
<polygon fill="#f91010" stroke="black" points="246.24,-198.38 235.71,-197.18 243.19,-204.68 246.24,-198.38"/>
</g>
<!-- whittle_src_managers_conversation_manager -->
<g id="node16" class="node">
<title>whittle_src_managers_conversation_manager</title><style>.edge>path:hover{stroke-width:8}</style>
<polygon fill="blue" stroke="black" points="684.88,-634.02 570.63,-634.02 570.63,-578.02 684.88,-578.02 684.88,-634.02"/>
<text xml:space="preserve" text-anchor="middle" x="627.76" y="-620.52" font-family="Helvetica,sans-Serif" font-size="10.00" fill="white">whittle.</text>
<text xml:space="preserve" text-anchor="middle" x="627.76" y="-608.52" font-family="Helvetica,sans-Serif" font-size="10.00" fill="white">src.</text>
<text xml:space="preserve" text-anchor="middle" x="627.76" y="-596.52" font-family="Helvetica,sans-Serif" font-size="10.00" fill="white">managers.</text>
<text xml:space="preserve" text-anchor="middle" x="627.76" y="-584.52" font-family="Helvetica,sans-Serif" font-size="10.00" fill="white">conversation_manager</text>
</g>
<!-- whittle_src_interfaces&#45;&gt;whittle_src_managers_conversation_manager -->
<g id="edge6" class="edge">
<title>whittle_src_interfaces&#45;&gt;whittle_src_managers_conversation_manager</title><style>.edge>path:hover{stroke-width:8}</style>
<path fill="none" stroke="black" d="M1046.74,-789.05C1039.55,-783.55 1031.6,-778.01 1023.76,-773.62 954.89,-735.09 912.44,-767.51 857.76,-710.62"/>
<path fill="none" stroke="black" d="M857.76,-708.62C803.93,-652.63 764.83,-679.1 694.76,-645.62 690.85,-643.75 686.86,-641.74 682.88,-639.65"/>
<polygon fill="#f91010" stroke="black" points="684.82,-636.73 674.36,-635.06 681.5,-642.89 684.82,-636.73"/>
</g>
<!-- whittle_src_managers_dictionary_manager -->
<g id="node17" class="node">
<title>whittle_src_managers_dictionary_manager</title><style>.edge>path:hover{stroke-width:8}</style>
<polygon fill="blue" stroke="black" points="552.13,-634.02 451.38,-634.02 451.38,-578.02 552.13,-578.02 552.13,-634.02"/>
<text xml:space="preserve" text-anchor="middle" x="501.76" y="-620.52" font-family="Helvetica,sans-Serif" font-size="10.00" fill="white">whittle.</text>
<text xml:space="preserve" text-anchor="middle" x="501.76" y="-608.52" font-family="Helvetica,sans-Serif" font-size="10.00" fill="white">src.</text>
<text xml:space="preserve" text-anchor="middle" x="501.76" y="-596.52" font-family="Helvetica,sans-Serif" font-size="10.00" fill="white">managers.</text>
<text xml:space="preserve" text-anchor="middle" x="501.76" y="-584.52" font-family="Helvetica,sans-Serif" font-size="10.00" fill="white">dictionary_manager</text>
</g>
<!-- whittle_src_interfaces&#45;&gt;whittle_src_managers_dictionary_manager -->
<g id="edge7" class="edge">
<title>whittle_src_interfaces&#45;&gt;whittle_src_managers_dictionary_manager</title><style>.edge>path:hover{stroke-width:8}</style>
<path fill="none" stroke="black" d="M1047.73,-788.53C1040.4,-782.9 1032.14,-777.44 1023.76,-773.62 949.51,-739.8 922.67,-758.31 843.76,-737.62 716.23,-704.19 680.84,-702.19 561.76,-645.62 558.24,-643.95 554.68,-642.1 551.14,-640.15"/>
<polygon fill="#f91010" stroke="black" points="553,-637.19 542.59,-635.2 549.49,-643.24 553,-637.19"/>
</g>
<!-- whittle_src_managers_file_path_manager -->
<g id="node18" class="node">
<title>whittle_src_managers_file_path_manager</title><style>.edge>path:hover{stroke-width:8}</style>
<polygon fill="blue" stroke="black" points="905.51,-634.02 810.01,-634.02 810.01,-578.02 905.51,-578.02 905.51,-634.02"/>
<text xml:space="preserve" text-anchor="middle" x="857.76" y="-620.52" font-family="Helvetica,sans-Serif" font-size="10.00" fill="white">whittle.</text>
<text xml:space="preserve" text-anchor="middle" x="857.76" y="-608.52" font-family="Helvetica,sans-Serif" font-size="10.00" fill="white">src.</text>
<text xml:space="preserve" text-anchor="middle" x="857.76" y="-596.52" font-family="Helvetica,sans-Serif" font-size="10.00" fill="white">managers.</text>
<text xml:space="preserve" text-anchor="middle" x="857.76" y="-584.52" font-family="Helvetica,sans-Serif" font-size="10.00" fill="white">file_path_manager</text>
</g>
<!-- whittle_src_interfaces&#45;&gt;whittle_src_managers_file_path_manager -->
<g id="edge8" class="edge">
<title>whittle_src_interfaces&#45;&gt;whittle_src_managers_file_path_manager</title><style>.edge>path:hover{stroke-width:8}</style>
<path fill="none" stroke="black" d="M857.76,-708.62C842.01,-692.23 842.11,-666.61 846.1,-645.19"/>
<polygon fill="#f91010" stroke="black" points="849.48,-646.13 848.23,-635.61 842.64,-644.61 849.48,-646.13"/>
</g>
<!-- whittle_src_managers_file_system_case_manager -->
<g id="node19" class="node">
<title>whittle_src_managers_file_system_case_manager</title><style>.edge>path:hover{stroke-width:8}</style>
<ellipse fill="#9d4343" stroke="black" cx="1018.76" cy="-606.02" rx="95.64" ry="39.6"/>
<text xml:space="preserve" text-anchor="middle" x="1018.76" y="-620.52" font-family="Helvetica,sans-Serif" font-size="10.00" fill="#ffffff">whittle.</text>
<text xml:space="preserve" text-anchor="middle" x="1018.76" y="-608.52" font-family="Helvetica,sans-Serif" font-size="10.00" fill="#ffffff">src.</text>
<text xml:space="preserve" text-anchor="middle" x="1018.76" y="-596.52" font-family="Helvetica,sans-Serif" font-size="10.00" fill="#ffffff">managers.</text>
<text xml:space="preserve" text-anchor="middle" x="1018.76" y="-584.52" font-family="Helvetica,sans-Serif" font-size="10.00" fill="#ffffff">file_system_case_manager</text>
</g>
<!-- whittle_src_interfaces&#45;&gt;whittle_src_managers_file_system_case_manager -->
<g id="edge9" class="edge">
<title>whittle_src_interfaces&#45;&gt;whittle_src_managers_file_system_case_manager</title><style>.edge>path:hover{stroke-width:8}</style>
<path fill="none" stroke="black" d="M857.76,-708.62C841.5,-691.71 892.74,-662.33 941.64,-639.5"/>
<polygon fill="#f91010" stroke="black" points="943.01,-642.72 950.64,-635.36 940.09,-636.36 943.01,-642.72"/>
</g>
<!-- whittle_src_managers_mesh_executor -->
<g id="node20" class="node">
<title>whittle_src_managers_mesh_executor</title><style>.edge>path:hover{stroke-width:8}</style>
<polygon fill="blue" stroke="black" points="1215.13,-634.02 1132.38,-634.02 1132.38,-578.02 1215.13,-578.02 1215.13,-634.02"/>
<text xml:space="preserve" text-anchor="middle" x="1173.76" y="-620.52" font-family="Helvetica,sans-Serif" font-size="10.00" fill="white">whittle.</text>
<text xml:space="preserve" text-anchor="middle" x="1173.76" y="-608.52" font-family="Helvetica,sans-Serif" font-size="10.00" fill="white">src.</text>
<text xml:space="preserve" text-anchor="middle" x="1173.76" y="-596.52" font-family="Helvetica,sans-Serif" font-size="10.00" fill="white">managers.</text>
<text xml:space="preserve" text-anchor="middle" x="1173.76" y="-584.52" font-family="Helvetica,sans-Serif" font-size="10.00" fill="white">mesh_executor</text>
</g>
<!-- whittle_src_interfaces&#45;&gt;whittle_src_managers_mesh_executor -->
<g id="edge10" class="edge">
<title>whittle_src_interfaces&#45;&gt;whittle_src_managers_mesh_executor</title><style>.edge>path:hover{stroke-width:8}</style>
<path fill="none" stroke="black" d="M1113.34,-803.5C1156.82,-791.36 1223.11,-764.49 1242.76,-710.62"/>
<path fill="none" stroke="black" d="M1242.76,-708.62C1251.54,-684.54 1236.86,-660.67 1218.81,-642.12"/>
<polygon fill="#f91010" stroke="black" points="1221.37,-639.73 1211.74,-635.31 1216.51,-644.77 1221.37,-639.73"/>
</g>
<!-- whittle_src_managers_plugin_registry -->
<g id="node21" class="node">
<title>whittle_src_managers_plugin_registry</title><style>.edge>path:hover{stroke-width:8}</style>
<polygon fill="blue" stroke="black" points="299.26,-493.42 220.26,-493.42 220.26,-437.42 299.26,-437.42 299.26,-493.42"/>
<text xml:space="preserve" text-anchor="middle" x="259.76" y="-479.92" font-family="Helvetica,sans-Serif" font-size="10.00" fill="white">whittle.</text>
<text xml:space="preserve" text-anchor="middle" x="259.76" y="-467.92" font-family="Helvetica,sans-Serif" font-size="10.00" fill="white">src.</text>
<text xml:space="preserve" text-anchor="middle" x="259.76" y="-455.92" font-family="Helvetica,sans-Serif" font-size="10.00" fill="white">managers.</text>
<text xml:space="preserve" text-anchor="middle" x="259.76" y="-443.92" font-family="Helvetica,sans-Serif" font-size="10.00" fill="white">plugin_registry</text>
</g>
<!-- whittle_src_interfaces&#45;&gt;whittle_src_managers_plugin_registry -->
<g id="edge11" class="edge">
<title>whittle_src_interfaces&#45;&gt;whittle_src_managers_plugin_registry</title><style>.edge>path:hover{stroke-width:8}</style>
<path fill="none" stroke="black" d="M1048.24,-788.14C1040.85,-782.44 1032.43,-777.04 1023.76,-773.62 865.12,-711.05 809.55,-768.06 641.76,-737.62 488.15,-709.75 423.25,-744.88 302.76,-645.62 272.47,-620.67 286.14,-598.64 263.76,-566.42 251.2,-548.35 228,-552.36 229.76,-530.42"/>
</g>
<!-- whittle_src_managers_prompt_manager -->
<g id="node22" class="node">
<title>whittle_src_managers_prompt_manager</title><style>.edge>path:hover{stroke-width:8}</style>
<polygon fill="blue" stroke="black" points="792.13,-634.02 703.38,-634.02 703.38,-578.02 792.13,-578.02 792.13,-634.02"/>
<text xml:space="preserve" text-anchor="middle" x="747.76" y="-620.52" font-family="Helvetica,sans-Serif" font-size="10.00" fill="white">whittle.</text>
<text xml:space="preserve" text-anchor="middle" x="747.76" y="-608.52" font-family="Helvetica,sans-Serif" font-size="10.00" fill="white">src.</text>
<text xml:space="preserve" text-anchor="middle" x="747.76" y="-596.52" font-family="Helvetica,sans-Serif" font-size="10.00" fill="white">managers.</text>
<text xml:space="preserve" text-anchor="middle" x="747.76" y="-584.52" font-family="Helvetica,sans-Serif" font-size="10.00" fill="white">prompt_manager</text>
</g>
<!-- whittle_src_interfaces&#45;&gt;whittle_src_managers_prompt_manager -->
<g id="edge12" class="edge">
<title>whittle_src_interfaces&#45;&gt;whittle_src_managers_prompt_manager</title><style>.edge>path:hover{stroke-width:8}</style>
<path fill="none" stroke="black" d="M857.76,-708.62C835.43,-685.39 808.94,-660.84 787.55,-641.7"/>
<polygon fill="#f91010" stroke="black" points="789.95,-639.15 780.16,-635.11 785.3,-644.38 789.95,-639.15"/>
</g>
<!-- whittle_src_managers_solver_factory -->
<g id="node23" class="node">
<title>whittle_src_managers_solver_factory</title><style>.edge>path:hover{stroke-width:8}</style>
<ellipse fill="#913030" stroke="black" cx="115.76" cy="-361.82" rx="54.8" ry="39.6"/>
<text xml:space="preserve" text-anchor="middle" x="115.76" y="-376.32" font-family="Helvetica,sans-Serif" font-size="10.00" fill="#ffffff">whittle.</text>
<text xml:space="preserve" text-anchor="middle" x="115.76" y="-364.32" font-family="Helvetica,sans-Serif" font-size="10.00" fill="#ffffff">src.</text>
<text xml:space="preserve" text-anchor="middle" x="115.76" y="-352.32" font-family="Helvetica,sans-Serif" font-size="10.00" fill="#ffffff">managers.</text>
<text xml:space="preserve" text-anchor="middle" x="115.76" y="-340.32" font-family="Helvetica,sans-Serif" font-size="10.00" fill="#ffffff">solver_factory</text>
</g>
<!-- whittle_src_interfaces&#45;&gt;whittle_src_managers_solver_factory -->
<g id="edge13" class="edge">
<title>whittle_src_interfaces&#45;&gt;whittle_src_managers_solver_factory</title><style>.edge>path:hover{stroke-width:8}</style>
<path fill="none" stroke="black" d="M1242.76,-464.42C1178.39,-387.14 439.61,-413.48 339.76,-401.42 285.52,-394.87 224.43,-384.12 179.76,-375.62"/>
<polygon fill="#f91010" stroke="black" points="180.45,-372.19 169.97,-373.74 179.14,-379.07 180.45,-372.19"/>
<path fill="none" stroke="black" d="M1242.76,-529.42C1221.28,-511.46 1260.68,-487.94 1242.76,-466.42"/>
</g>
<!-- whittle_src_plugins_openfoam_plugin -->
<g id="node25" class="node">
<title>whittle_src_plugins_openfoam_plugin</title><style>.edge>path:hover{stroke-width:8}</style>
<polygon fill="blue" stroke="black" points="471.51,-493.42 382.01,-493.42 382.01,-437.42 471.51,-437.42 471.51,-493.42"/>
<text xml:space="preserve" text-anchor="middle" x="426.76" y="-479.92" font-family="Helvetica,sans-Serif" font-size="10.00" fill="white">whittle.</text>
<text xml:space="preserve" text-anchor="middle" x="426.76" y="-467.92" font-family="Helvetica,sans-Serif" font-size="10.00" fill="white">src.</text>
<text xml:space="preserve" text-anchor="middle" x="426.76" y="-455.92" font-family="Helvetica,sans-Serif" font-size="10.00" fill="white">plugins.</text>
<text xml:space="preserve" text-anchor="middle" x="426.76" y="-443.92" font-family="Helvetica,sans-Serif" font-size="10.00" fill="white">openfoam_plugin</text>
</g>
<!-- whittle_src_interfaces&#45;&gt;whittle_src_plugins_openfoam_plugin -->
<g id="edge14" class="edge">
<title>whittle_src_interfaces&#45;&gt;whittle_src_plugins_openfoam_plugin</title><style>.edge>path:hover{stroke-width:8}</style>
<path fill="none" stroke="black" d="M1242.76,-529.42C1193.53,-471.8 659.69,-466.47 483.1,-466.29"/>
<polygon fill="#f91010" stroke="black" points="483.26,-462.79 473.26,-466.28 483.26,-469.79 483.26,-462.79"/>
<path fill="none" stroke="black" d="M1242.76,-708.62C1269.89,-634.21 1294.2,-590.64 1242.76,-530.42"/>
</g>
<!-- whittle_src_interfaces_case_structure_interface -->
<g id="node7" class="node">
<title>whittle_src_interfaces_case_structure_interface</title><style>.edge>path:hover{stroke-width:8}</style>
<ellipse fill="#c24747" stroke="black" cx="731.76" cy="-813.22" rx="87.15" ry="39.6"/>
<text xml:space="preserve" text-anchor="middle" x="731.76" y="-827.72" font-family="Helvetica,sans-Serif" font-size="10.00" fill="#ffffff">whittle.</text>
<text xml:space="preserve" text-anchor="middle" x="731.76" y="-815.72" font-family="Helvetica,sans-Serif" font-size="10.00" fill="#ffffff">src.</text>
<text xml:space="preserve" text-anchor="middle" x="731.76" y="-803.72" font-family="Helvetica,sans-Serif" font-size="10.00" fill="#ffffff">interfaces.</text>
<text xml:space="preserve" text-anchor="middle" x="731.76" y="-791.72" font-family="Helvetica,sans-Serif" font-size="10.00" fill="#ffffff">case_structure_interface</text>
</g>
<!-- whittle_src_interfaces_case_structure_interface&#45;&gt;whittle_src_managers_file_system_case_manager -->
<g id="edge15" class="edge">
<title>whittle_src_interfaces_case_structure_interface&#45;&gt;whittle_src_managers_file_system_case_manager</title><style>.edge>path:hover{stroke-width:8}</style>
<path fill="none" stroke="black" d="M756.54,-774.88C777.1,-746.25 808.58,-707.39 843.76,-681.62 859.95,-669.75 900.23,-652.33 938.06,-637.31"/>
<polygon fill="#c24747" stroke="black" points="939.22,-640.62 947.24,-633.7 936.65,-634.1 939.22,-640.62"/>
</g>
<!-- whittle_src_interfaces_conversation_interface -->
<g id="node8" class="node">
<title>whittle_src_interfaces_conversation_interface</title><style>.edge>path:hover{stroke-width:8}</style>
<ellipse fill="#ce3b3b" stroke="black" cx="392.76" cy="-813.22" rx="80.79" ry="39.6"/>
<text xml:space="preserve" text-anchor="middle" x="392.76" y="-827.72" font-family="Helvetica,sans-Serif" font-size="10.00" fill="#ffffff">whittle.</text>
<text xml:space="preserve" text-anchor="middle" x="392.76" y="-815.72" font-family="Helvetica,sans-Serif" font-size="10.00" fill="#ffffff">src.</text>
<text xml:space="preserve" text-anchor="middle" x="392.76" y="-803.72" font-family="Helvetica,sans-Serif" font-size="10.00" fill="#ffffff">interfaces.</text>
<text xml:space="preserve" text-anchor="middle" x="392.76" y="-791.72" font-family="Helvetica,sans-Serif" font-size="10.00" fill="#ffffff">conversation_interface</text>
</g>
<!-- whittle_src_interfaces_solver_managers -->
<g id="node13" class="node">
<title>whittle_src_interfaces_solver_managers</title><style>.edge>path:hover{stroke-width:8}</style>
<polygon fill="blue" stroke="black" points="263.88,-737.62 173.63,-737.62 173.63,-681.62 263.88,-681.62 263.88,-737.62"/>
<text xml:space="preserve" text-anchor="middle" x="218.76" y="-724.12" font-family="Helvetica,sans-Serif" font-size="10.00" fill="white">whittle.</text>
<text xml:space="preserve" text-anchor="middle" x="218.76" y="-712.12" font-family="Helvetica,sans-Serif" font-size="10.00" fill="white">src.</text>
<text xml:space="preserve" text-anchor="middle" x="218.76" y="-700.12" font-family="Helvetica,sans-Serif" font-size="10.00" fill="white">interfaces.</text>
<text xml:space="preserve" text-anchor="middle" x="218.76" y="-688.12" font-family="Helvetica,sans-Serif" font-size="10.00" fill="white">solver_managers</text>
</g>
<!-- whittle_src_interfaces_conversation_interface&#45;&gt;whittle_src_interfaces_solver_managers -->
<g id="edge16" class="edge">
<title>whittle_src_interfaces_conversation_interface&#45;&gt;whittle_src_interfaces_solver_managers</title><style>.edge>path:hover{stroke-width:8}</style>
<path fill="none" stroke="black" d="M341.49,-782.28C320.28,-769.9 295.64,-755.51 274.02,-742.89"/>
<polygon fill="#ce3b3b" stroke="black" points="276.04,-740.01 265.64,-737.99 272.51,-746.06 276.04,-740.01"/>
</g>
<!-- whittle_src_interfaces_conversation_interface&#45;&gt;whittle_src_managers_conversation_manager -->
<g id="edge17" class="edge">
<title>whittle_src_interfaces_conversation_interface&#45;&gt;whittle_src_managers_conversation_manager</title><style>.edge>path:hover{stroke-width:8}</style>
<path fill="none" stroke="black" d="M431.82,-778.1C475.05,-740.36 544.33,-679.86 587.88,-641.84"/>
<polygon fill="#ce3b3b" stroke="black" points="590.12,-644.52 595.36,-635.31 585.52,-639.25 590.12,-644.52"/>
</g>
<!-- whittle_src_interfaces_dictionary_interfaces -->
<g id="node9" class="node">
<title>whittle_src_interfaces_dictionary_interfaces</title><style>.edge>path:hover{stroke-width:8}</style>
<ellipse fill="#ce3b3b" stroke="black" cx="218.76" cy="-813.22" rx="74.95" ry="39.6"/>
<text xml:space="preserve" text-anchor="middle" x="218.76" y="-827.72" font-family="Helvetica,sans-Serif" font-size="10.00" fill="#ffffff">whittle.</text>
<text xml:space="preserve" text-anchor="middle" x="218.76" y="-815.72" font-family="Helvetica,sans-Serif" font-size="10.00" fill="#ffffff">src.</text>
<text xml:space="preserve" text-anchor="middle" x="218.76" y="-803.72" font-family="Helvetica,sans-Serif" font-size="10.00" fill="#ffffff">interfaces.</text>
<text xml:space="preserve" text-anchor="middle" x="218.76" y="-791.72" font-family="Helvetica,sans-Serif" font-size="10.00" fill="#ffffff">dictionary_interfaces</text>
</g>
<!-- whittle_src_interfaces_dictionary_interfaces&#45;&gt;whittle_src_interfaces_solver_managers -->
<g id="edge18" class="edge">
<title>whittle_src_interfaces_dictionary_interfaces&#45;&gt;whittle_src_interfaces_solver_managers</title><style>.edge>path:hover{stroke-width:8}</style>
<path fill="none" stroke="black" d="M218.76,-773.23C218.76,-765.42 218.76,-757.22 218.76,-749.43"/>
<polygon fill="#ce3b3b" stroke="black" points="222.26,-749.52 218.76,-739.52 215.26,-749.52 222.26,-749.52"/>
</g>
<!-- whittle_src_interfaces_dictionary_interfaces&#45;&gt;whittle_src_managers_dictionary_manager -->
<g id="edge19" class="edge">
<title>whittle_src_interfaces_dictionary_interfaces&#45;&gt;whittle_src_managers_dictionary_manager</title><style>.edge>path:hover{stroke-width:8}</style>
<path fill="none" stroke="black" d="M254.72,-778.37C270.76,-760.19 287.09,-736.26 291.76,-710.62"/>
<path fill="none" stroke="black" d="M291.76,-708.62C304.41,-639.09 374.91,-677.94 437.76,-645.62 441.21,-643.84 444.72,-641.96 448.25,-640.01"/>
<polygon fill="#ce3b3b" stroke="black" points="449.85,-643.12 456.82,-635.14 446.39,-637.04 449.85,-643.12"/>
</g>
<!-- whittle_src_interfaces_file_path_interface -->
<g id="node10" class="node">
<title>whittle_src_interfaces_file_path_interface</title><style>.edge>path:hover{stroke-width:8}</style>
<ellipse fill="#db2f2f" stroke="black" cx="558.76" cy="-813.22" rx="67.53" ry="39.6"/>
<text xml:space="preserve" text-anchor="middle" x="558.76" y="-827.72" font-family="Helvetica,sans-Serif" font-size="10.00" fill="#ffffff">whittle.</text>
<text xml:space="preserve" text-anchor="middle" x="558.76" y="-815.72" font-family="Helvetica,sans-Serif" font-size="10.00" fill="#ffffff">src.</text>
<text xml:space="preserve" text-anchor="middle" x="558.76" y="-803.72" font-family="Helvetica,sans-Serif" font-size="10.00" fill="#ffffff">interfaces.</text>
<text xml:space="preserve" text-anchor="middle" x="558.76" y="-791.72" font-family="Helvetica,sans-Serif" font-size="10.00" fill="#ffffff">file_path_interface</text>
</g>
<!-- whittle_src_interfaces_file_path_interface&#45;&gt;whittle_src_interfaces_solver_managers -->
<g id="edge20" class="edge">
<title>whittle_src_interfaces_file_path_interface&#45;&gt;whittle_src_interfaces_solver_managers</title><style>.edge>path:hover{stroke-width:8}</style>
<path fill="none" stroke="black" d="M510.62,-785.1C501.56,-780.77 492.02,-776.71 482.76,-773.62 395,-744.35 366.09,-765.09 277.76,-737.62 276.79,-737.32 275.82,-737.01 274.85,-736.68"/>
<polygon fill="#db2f2f" stroke="black" points="276.38,-733.52 265.79,-733.38 273.99,-740.09 276.38,-733.52"/>
</g>
<!-- whittle_src_interfaces_file_path_interface&#45;&gt;whittle_src_managers_dictionary_manager -->
<g id="edge21" class="edge">
<title>whittle_src_interfaces_file_path_interface&#45;&gt;whittle_src_managers_dictionary_manager</title><style>.edge>path:hover{stroke-width:8}</style>
<path fill="none" stroke="black" d="M510.1,-785.19C501.18,-780.91 491.82,-776.84 482.76,-773.62 398.52,-743.71 275.75,-798.56 291.76,-710.62"/>
</g>
<!-- whittle_src_interfaces_file_path_interface&#45;&gt;whittle_src_managers_file_path_manager -->
<g id="edge22" class="edge">
<title>whittle_src_interfaces_file_path_interface&#45;&gt;whittle_src_managers_file_path_manager</title><style>.edge>path:hover{stroke-width:8}</style>
<path fill="none" stroke="black" d="M602.23,-782.38C657.16,-744.68 751.42,-679.99 808.82,-640.6"/>
<polygon fill="#db2f2f" stroke="black" points="810.54,-643.67 816.8,-635.13 806.57,-637.9 810.54,-643.67"/>
</g>
<!-- whittle_src_interfaces_mesh_executor_interface -->
<g id="node11" class="node">
<title>whittle_src_interfaces_mesh_executor_interface</title><style>.edge>path:hover{stroke-width:8}</style>
<ellipse fill="#ce3b3b" stroke="black" cx="925.76" cy="-813.22" rx="88.74" ry="39.6"/>
<text xml:space="preserve" text-anchor="middle" x="925.76" y="-827.72" font-family="Helvetica,sans-Serif" font-size="10.00" fill="#ffffff">whittle.</text>
<text xml:space="preserve" text-anchor="middle" x="925.76" y="-815.72" font-family="Helvetica,sans-Serif" font-size="10.00" fill="#ffffff">src.</text>
<text xml:space="preserve" text-anchor="middle" x="925.76" y="-803.72" font-family="Helvetica,sans-Serif" font-size="10.00" fill="#ffffff">interfaces.</text>
<text xml:space="preserve" text-anchor="middle" x="925.76" y="-791.72" font-family="Helvetica,sans-Serif" font-size="10.00" fill="#ffffff">mesh_executor_interface</text>
</g>
<!-- whittle_src_interfaces_mesh_executor_interface&#45;&gt;whittle_src_interfaces_solver_managers -->
<g id="edge23" class="edge">
<title>whittle_src_interfaces_mesh_executor_interface&#45;&gt;whittle_src_interfaces_solver_managers</title><style>.edge>path:hover{stroke-width:8}</style>
<path fill="none" stroke="black" d="M863.67,-784.45C851.94,-780.16 839.62,-776.27 827.76,-773.62 588.71,-720.09 515.27,-797.58 277.76,-737.62 276.78,-737.37 275.79,-737.11 274.81,-736.83"/>
<polygon fill="#ce3b3b" stroke="black" points="276.26,-733.62 265.66,-733.84 274.08,-740.27 276.26,-733.62"/>
</g>
<!-- whittle_src_interfaces_mesh_executor_interface&#45;&gt;whittle_src_managers_mesh_executor -->
<g id="edge24" class="edge">
<title>whittle_src_interfaces_mesh_executor_interface&#45;&gt;whittle_src_managers_mesh_executor</title><style>.edge>path:hover{stroke-width:8}</style>
<path fill="none" stroke="black" d="M967.27,-777.87C1013.03,-740.01 1086.22,-679.44 1132.06,-641.52"/>
<polygon fill="#ce3b3b" stroke="black" points="1134.21,-644.29 1139.68,-635.21 1129.74,-638.89 1134.21,-644.29"/>
</g>
<!-- whittle_src_interfaces_prompt_interface -->
<g id="node12" class="node">
<title>whittle_src_interfaces_prompt_interface</title><style>.edge>path:hover{stroke-width:8}</style>
<ellipse fill="#f91010" stroke="black" cx="62.76" cy="-813.22" rx="62.76" ry="39.6"/>
<text xml:space="preserve" text-anchor="middle" x="62.76" y="-827.72" font-family="Helvetica,sans-Serif" font-size="10.00" fill="#ffffff">whittle.</text>
<text xml:space="preserve" text-anchor="middle" x="62.76" y="-815.72" font-family="Helvetica,sans-Serif" font-size="10.00" fill="#ffffff">src.</text>
<text xml:space="preserve" text-anchor="middle" x="62.76" y="-803.72" font-family="Helvetica,sans-Serif" font-size="10.00" fill="#ffffff">interfaces.</text>
<text xml:space="preserve" text-anchor="middle" x="62.76" y="-791.72" font-family="Helvetica,sans-Serif" font-size="10.00" fill="#ffffff">prompt_interface</text>
</g>
<!-- whittle_src_interfaces_prompt_interface&#45;&gt;whittle_src_ai_assistant -->
<g id="edge25" class="edge">
<title>whittle_src_interfaces_prompt_interface&#45;&gt;whittle_src_ai_assistant</title><style>.edge>path:hover{stroke-width:8}</style>
<path fill="none" stroke="black" d="M130.76,-708.62C165.47,-678.98 102.66,-650.74 115.76,-607.02"/>
<path fill="none" stroke="black" d="M115.76,-464.42C108.2,-425.23 67.18,-438.24 51.76,-401.42 38.16,-368.96 31.87,-351.27 51.76,-322.23 91.35,-264.41 180.6,-332.9 198.76,-265.23"/>
<path fill="none" stroke="black" d="M115.76,-605.02C133.43,-546.01 125.79,-527.2 115.76,-466.42"/>
<path fill="none" stroke="black" d="M198.76,-263.23C202.47,-248.66 203.3,-232.26 202.93,-217.66"/>
<polygon fill="#f91010" stroke="black" points="206.44,-217.74 202.47,-207.92 199.44,-218.07 206.44,-217.74"/>
<path fill="none" stroke="black" d="M80.98,-775.14C92.83,-754.05 109.93,-728.39 130.76,-710.62"/>
</g>
<!-- whittle_src_interfaces_prompt_interface&#45;&gt;whittle_src_interfaces_solver_managers -->
<g id="edge26" class="edge">
<title>whittle_src_interfaces_prompt_interface&#45;&gt;whittle_src_interfaces_solver_managers</title><style>.edge>path:hover{stroke-width:8}</style>
<path fill="none" stroke="black" d="M105.8,-784.18C124.78,-771.82 147.26,-757.18 167.14,-744.23"/>
<polygon fill="#f91010" stroke="black" points="168.93,-747.25 175.4,-738.86 165.11,-741.38 168.93,-747.25"/>
</g>
<!-- whittle_src_interfaces_solver_plugin -->
<g id="node14" class="node">
<title>whittle_src_interfaces_solver_plugin</title><style>.edge>path:hover{stroke-width:8}</style>
<polygon fill="blue" stroke="black" points="255.26,-634.02 182.26,-634.02 182.26,-578.02 255.26,-578.02 255.26,-634.02"/>
<text xml:space="preserve" text-anchor="middle" x="218.76" y="-620.52" font-family="Helvetica,sans-Serif" font-size="10.00" fill="white">whittle.</text>
<text xml:space="preserve" text-anchor="middle" x="218.76" y="-608.52" font-family="Helvetica,sans-Serif" font-size="10.00" fill="white">src.</text>
<text xml:space="preserve" text-anchor="middle" x="218.76" y="-596.52" font-family="Helvetica,sans-Serif" font-size="10.00" fill="white">interfaces.</text>
<text xml:space="preserve" text-anchor="middle" x="218.76" y="-584.52" font-family="Helvetica,sans-Serif" font-size="10.00" fill="white">solver_plugin</text>
</g>
<!-- whittle_src_interfaces_prompt_interface&#45;&gt;whittle_src_interfaces_solver_plugin -->
<g id="edge27" class="edge">
<title>whittle_src_interfaces_prompt_interface&#45;&gt;whittle_src_interfaces_solver_plugin</title><style>.edge>path:hover{stroke-width:8}</style>
<path fill="none" stroke="black" d="M130.76,-708.62C153.38,-689.3 175.29,-664.03 191.59,-643.53"/>
<polygon fill="#f91010" stroke="black" points="194.33,-645.7 197.74,-635.67 188.82,-641.39 194.33,-645.7"/>
</g>
<!-- whittle_src_interfaces_prompt_interface&#45;&gt;whittle_src_managers_prompt_manager -->
<g id="edge28" class="edge">
<title>whittle_src_interfaces_prompt_interface&#45;&gt;whittle_src_managers_prompt_manager</title><style>.edge>path:hover{stroke-width:8}</style>
<path fill="none" stroke="black" d="M130.76,-708.62C145.43,-696.09 146.76,-688.59 164.76,-681.62 384.5,-596.5 471.93,-725.15 693.76,-645.62 697.73,-644.19 701.68,-642.38 705.52,-640.33"/>
<polygon fill="#f91010" stroke="black" points="707.31,-643.34 714.09,-635.2 703.71,-637.33 707.31,-643.34"/>
</g>
<!-- whittle_src_interfaces_prompt_interface&#45;&gt;whittle_src_managers_solver_factory -->
<g id="edge29" class="edge">
<title>whittle_src_interfaces_prompt_interface&#45;&gt;whittle_src_managers_solver_factory</title><style>.edge>path:hover{stroke-width:8}</style>
<path fill="none" stroke="black" d="M115.76,-464.42C112.55,-447.82 111.75,-429.4 112,-412.86"/>
<polygon fill="#f91010" stroke="black" points="115.48,-413.36 112.28,-403.26 108.49,-413.15 115.48,-413.36"/>
</g>
<!-- whittle_src_interfaces_prompt_interface&#45;&gt;whittle_src_plugins_openfoam_plugin -->
<g id="edge30" class="edge">
<title>whittle_src_interfaces_prompt_interface&#45;&gt;whittle_src_plugins_openfoam_plugin</title><style>.edge>path:hover{stroke-width:8}</style>
<path fill="none" stroke="black" d="M115.76,-605.02C125.39,-575.98 145.69,-580.69 172.76,-566.42 238.31,-531.86 318.56,-502.21 371.08,-484.37"/>
<polygon fill="#f91010" stroke="black" points="372.06,-487.73 380.42,-481.22 369.82,-481.1 372.06,-487.73"/>
</g>
<!-- whittle_src_interfaces_solver_managers&#45;&gt;whittle_src_interfaces_solver_plugin -->
<g id="edge31" class="edge">
<title>whittle_src_interfaces_solver_managers&#45;&gt;whittle_src_interfaces_solver_plugin</title><style>.edge>path:hover{stroke-width:8}</style>
<path fill="none" stroke="black" d="M218.76,-681.12C218.76,-670.19 218.76,-657.42 218.76,-645.6"/>
<polygon fill="blue" stroke="black" points="222.26,-645.7 218.76,-635.7 215.26,-645.7 222.26,-645.7"/>
</g>
<!-- whittle_src_interfaces_solver_managers&#45;&gt;whittle_src_managers_solver_factory -->
<g id="edge32" class="edge">
<title>whittle_src_interfaces_solver_managers&#45;&gt;whittle_src_managers_solver_factory</title><style>.edge>path:hover{stroke-width:8}</style>
<path fill="none" stroke="black" d="M194.89,-681.38C186.76,-670.83 178.32,-658.26 172.76,-645.62 168.07,-634.97 140.14,-490.72 125.19,-412.48"/>
<polygon fill="blue" stroke="black" points="128.68,-412.09 123.37,-402.92 121.81,-413.4 128.68,-412.09"/>
</g>
<!-- whittle_src_interfaces_solver_managers&#45;&gt;whittle_src_plugins_openfoam_plugin -->
<g id="edge33" class="edge">
<title>whittle_src_interfaces_solver_managers&#45;&gt;whittle_src_plugins_openfoam_plugin</title><style>.edge>path:hover{stroke-width:8}</style>
<path fill="none" stroke="black" d="M264.2,-686.99C268.74,-685.08 273.32,-683.25 277.76,-681.62 332.81,-661.35 359.88,-683.4 404.76,-645.62 434.62,-620.47 416.57,-595.38 442.76,-566.42 463.36,-543.64 526.12,-549.13 501.76,-530.42"/>
</g>
<!-- whittle_src_interfaces_solver_plugin&#45;&gt;whittle_src_managers_plugin_registry -->
<g id="edge34" class="edge">
<title>whittle_src_interfaces_solver_plugin&#45;&gt;whittle_src_managers_plugin_registry</title><style>.edge>path:hover{stroke-width:8}</style>
<path fill="none" stroke="black" d="M229.76,-529.42C230.45,-520.77 233.1,-512.03 236.56,-503.93"/>
<polygon fill="blue" stroke="black" points="239.65,-505.6 240.83,-495.07 233.34,-502.56 239.65,-505.6"/>
<path fill="none" stroke="black" d="M223.65,-577.84C225.96,-563.74 228.49,-546.21 229.76,-530.42"/>
</g>
<!-- whittle_src_interfaces_solver_plugin&#45;&gt;whittle_src_plugins_openfoam_plugin -->
<g id="edge35" class="edge">
<title>whittle_src_interfaces_solver_plugin&#45;&gt;whittle_src_plugins_openfoam_plugin</title><style>.edge>path:hover{stroke-width:8}</style>
<path fill="none" stroke="black" d="M501.76,-529.42C490.16,-520.51 477.88,-510.48 466.7,-501.08"/>
<polygon fill="blue" stroke="black" points="469.05,-498.49 459.16,-494.69 464.53,-503.83 469.05,-498.49"/>
<path fill="none" stroke="black" d="M255.59,-585.65C269.99,-578.74 286.83,-571.43 302.76,-566.42 388.49,-539.44 573.04,-585.16 501.76,-530.42"/>
</g>
<!-- whittle_src_managers -->
<g id="node15" class="node">
<title>whittle_src_managers</title><style>.edge>path:hover{stroke-width:8}</style>
<ellipse fill="#e72222" stroke="black" cx="353.76" cy="-606.02" rx="41.54" ry="31.11"/>
<text xml:space="preserve" text-anchor="middle" x="353.76" y="-614.52" font-family="Helvetica,sans-Serif" font-size="10.00" fill="#ffffff">whittle.</text>
<text xml:space="preserve" text-anchor="middle" x="353.76" y="-602.52" font-family="Helvetica,sans-Serif" font-size="10.00" fill="#ffffff">src.</text>
<text xml:space="preserve" text-anchor="middle" x="353.76" y="-590.52" font-family="Helvetica,sans-Serif" font-size="10.00" fill="#ffffff">managers</text>
</g>
<!-- whittle_src_managers&#45;&gt;whittle_src_ai_assistant -->
<g id="edge36" class="edge">
<title>whittle_src_managers&#45;&gt;whittle_src_ai_assistant</title><style>.edge>path:hover{stroke-width:8}</style>
<path fill="none" stroke="black" d="M317.68,-590.01C281.19,-574.09 228.41,-548.74 215.76,-530.42 200.31,-508.08 157.83,-427.03 198.76,-265.23"/>
</g>
<!-- whittle_src_plugins -->
<g id="node24" class="node">
<title>whittle_src_plugins</title><style>.edge>path:hover{stroke-width:8}</style>
<polygon fill="blue" stroke="black" points="280.76,-286.23 226.76,-286.23 226.76,-242.23 280.76,-242.23 280.76,-286.23"/>
<text xml:space="preserve" text-anchor="middle" x="253.76" y="-272.73" font-family="Helvetica,sans-Serif" font-size="10.00" fill="white">whittle.</text>
<text xml:space="preserve" text-anchor="middle" x="253.76" y="-260.73" font-family="Helvetica,sans-Serif" font-size="10.00" fill="white">src.</text>
<text xml:space="preserve" text-anchor="middle" x="253.76" y="-248.73" font-family="Helvetica,sans-Serif" font-size="10.00" fill="white">plugins</text>
</g>
<!-- whittle_src_managers&#45;&gt;whittle_src_plugins -->
<g id="edge37" class="edge">
<title>whittle_src_managers&#45;&gt;whittle_src_plugins</title><style>.edge>path:hover{stroke-width:8}</style>
<path fill="none" stroke="black" d="M357.67,-574.89C364.44,-517.94 375.65,-397.11 353.76,-362.82"/>
<path fill="none" stroke="black" d="M353.76,-360.82C336.24,-334.87 310.63,-310.56 289.71,-292.94"/>
<polygon fill="#e72222" stroke="black" points="292.18,-290.44 282.24,-286.78 287.73,-295.85 292.18,-290.44"/>
</g>
<!-- whittle_src_managers&#45;&gt;whittle_src_plugins_openfoam_plugin -->
<g id="edge38" class="edge">
<title>whittle_src_managers&#45;&gt;whittle_src_plugins_openfoam_plugin</title><style>.edge>path:hover{stroke-width:8}</style>
<path fill="none" stroke="black" d="M382.6,-583.27C391.09,-577.38 400.58,-571.3 409.76,-566.42 448.53,-545.83 536.58,-557.16 501.76,-530.42"/>
</g>
<!-- whittle_src_managers_conversation_manager&#45;&gt;whittle_src_plugins_openfoam_plugin -->
<g id="edge39" class="edge">
<title>whittle_src_managers_conversation_manager&#45;&gt;whittle_src_plugins_openfoam_plugin</title><style>.edge>path:hover{stroke-width:8}</style>
<path fill="none" stroke="black" d="M580.33,-577.68C547.7,-558.74 508.99,-535.98 501.76,-530.42"/>
</g>
<!-- whittle_src_managers_dictionary_manager&#45;&gt;whittle_src_plugins_openfoam_plugin -->
<g id="edge40" class="edge">
<title>whittle_src_managers_dictionary_manager&#45;&gt;whittle_src_plugins_openfoam_plugin</title><style>.edge>path:hover{stroke-width:8}</style>
<path fill="none" stroke="black" d="M511.13,-577.54C514.88,-560.93 515.52,-540.99 501.76,-530.42"/>
</g>
<!-- whittle_src_managers_file_path_manager&#45;&gt;whittle_src_plugins_openfoam_plugin -->
<g id="edge41" class="edge">
<title>whittle_src_managers_file_path_manager&#45;&gt;whittle_src_plugins_openfoam_plugin</title><style>.edge>path:hover{stroke-width:8}</style>
<path fill="none" stroke="black" d="M822.69,-577.55C815.74,-573.2 808.26,-569.22 800.76,-566.42 675.37,-519.58 607.92,-611.94 501.76,-530.42"/>
</g>
<!-- whittle_src_managers_mesh_executor&#45;&gt;whittle_src_plugins_openfoam_plugin -->
<g id="edge42" class="edge">
<title>whittle_src_managers_mesh_executor&#45;&gt;whittle_src_plugins_openfoam_plugin</title><style>.edge>path:hover{stroke-width:8}</style>
<path fill="none" stroke="black" d="M1144.04,-577.56C1137.74,-573.09 1130.84,-569.07 1123.76,-566.42 1058.91,-542.19 556.66,-572.58 501.76,-530.42"/>
</g>
<!-- whittle_src_managers_plugin_registry&#45;&gt;whittle_src_ai_assistant -->
<g id="edge43" class="edge">
<title>whittle_src_managers_plugin_registry&#45;&gt;whittle_src_ai_assistant</title><style>.edge>path:hover{stroke-width:8}</style>
<path fill="none" stroke="black" d="M252.61,-437C247.54,-416.65 240.92,-388.16 236.76,-362.82"/>
<path fill="none" stroke="black" d="M236.76,-360.82C229.34,-315.71 187.54,-309.55 198.76,-265.23"/>
</g>
<!-- whittle_src_managers_plugin_registry&#45;&gt;whittle_src_managers_solver_factory -->
<g id="edge44" class="edge">
<title>whittle_src_managers_plugin_registry&#45;&gt;whittle_src_managers_solver_factory</title><style>.edge>path:hover{stroke-width:8}</style>
<path fill="none" stroke="black" d="M220.79,-436.93C203.19,-424.51 182.23,-409.72 163.67,-396.63"/>
<polygon fill="blue" stroke="black" points="165.93,-393.94 155.74,-391.04 161.9,-399.66 165.93,-393.94"/>
</g>
<!-- whittle_src_managers_plugin_registry&#45;&gt;whittle_src_plugins -->
<g id="edge45" class="edge">
<title>whittle_src_managers_plugin_registry&#45;&gt;whittle_src_plugins</title><style>.edge>path:hover{stroke-width:8}</style>
<path fill="none" stroke="black" d="M236.76,-360.82C233.27,-339.61 237.48,-315.81 242.58,-297.26"/>
<polygon fill="blue" stroke="black" points="245.86,-298.49 245.37,-287.91 239.15,-296.49 245.86,-298.49"/>
</g>
<!-- whittle_src_managers_prompt_manager&#45;&gt;whittle_src_plugins_openfoam_plugin -->
<g id="edge46" class="edge">
<title>whittle_src_managers_prompt_manager&#45;&gt;whittle_src_plugins_openfoam_plugin</title><style>.edge>path:hover{stroke-width:8}</style>
<path fill="none" stroke="black" d="M713.94,-577.53C707.52,-573.29 700.65,-569.36 693.76,-566.42 613.89,-532.38 570.62,-583.3 501.76,-530.42"/>
</g>
<!-- whittle_src_managers_solver_factory&#45;&gt;whittle_src_ai_assistant -->
<g id="edge47" class="edge">
<title>whittle_src_managers_solver_factory&#45;&gt;whittle_src_ai_assistant</title><style>.edge>path:hover{stroke-width:8}</style>
<path fill="none" stroke="black" d="M152.97,-332.67C171.75,-315.65 191.96,-292.07 198.76,-265.23"/>
</g>
<!-- whittle_src_plugins&#45;&gt;whittle -->
<g id="edge48" class="edge">
<title>whittle_src_plugins&#45;&gt;whittle</title><style>.edge>path:hover{stroke-width:8}</style>
<path fill="none" stroke="black" d="M462.76,-174.11C463.46,-170.73 387.35,-132.84 339.54,-109.4"/>
<polygon fill="blue" stroke="black" points="341.1,-106.27 330.58,-105.02 338.03,-112.56 341.1,-106.27"/>
<path fill="none" stroke="black" d="M281.04,-263.53C334.05,-262.42 447.14,-251.16 462.76,-176.11"/>
</g>
<!-- whittle_src_plugins&#45;&gt;whittle_cli -->
<g id="edge49" class="edge">
<title>whittle_src_plugins&#45;&gt;whittle_cli</title><style>.edge>path:hover{stroke-width:8}</style>
<path fill="none" stroke="black" d="M462.76,-174.11C472.16,-128.92 465.26,-112.85 443.76,-72 437.58,-60.28 427.93,-49.49 418.55,-40.76"/>
<polygon fill="blue" stroke="black" points="421.08,-38.32 411.26,-34.34 416.45,-43.57 421.08,-38.32"/>
</g>
<!-- whittle_src_plugins_openfoam_plugin&#45;&gt;whittle_src_plugins -->
<g id="edge50" class="edge">
<title>whittle_src_plugins_openfoam_plugin&#45;&gt;whittle_src_plugins</title><style>.edge>path:hover{stroke-width:8}</style>
<path fill="none" stroke="black" d="M405.77,-436.96C390.71,-416.84 370.23,-388.64 353.76,-362.82"/>
</g>
</g>
</svg>
